<?xml version="1.0" encoding="UTF-8"?>
<svg width="1200pt" height="1200pt" version="1.1" viewBox="0 0 1200 1200" xmlns="http://www.w3.org/2000/svg">
 <path d="m979.8 635.3c-16.645 0-31.992 9.2031-39.777 23.902l-64.75 122.01-79.785-233.74c-6.0977-17.664-22.379-29.758-41.074-30.406-19.223-0.55078-35.797 10.309-43.066 27.504l-54.73 130-86.398-517.52c-3.9609-21.742-24.348-38.254-45.238-36.945-22.117 0.50391-40.605 15.023-43.617 36.945l-76.281 600.61-61.871-322.36c-3.6367-19.066-19.129-33.637-38.41-36.117-18.922-2.5195-37.941 7.6211-46.344 25.164l-101.22 210.95h-157.24v89.961h185.59c17.316 0 33.07-9.8984 40.57-25.547l54.43-113.4 87.742 457.16c4.0664 21.25 22.645 36.492 44.184 36.492h1.1992c22.031-0.58984 40.402-17.051 43.391-38.891l75.105-590.17 62.961 388.61c3.5391 19.57 19.57 34.512 39.312 36.684 20.039 1.9336 38.676-8.9023 46.402-27.301l67.617-160.48 75.238 220.3c5.7969 16.93 21.156 28.883 39.012 30.285 17.926 0.99609 34.918-7.9062 43.355-23.785l100.77-189.95h193.12v-89.969z"/>
</svg>
