<svg width="38" height="40" viewBox="0 0 38 40" fill="none" xmlns="http://www.w3.org/2000/svg">
<path d="M38.0003 28.3791C38.0003 35.6589 33.9397 39.9987 27.1283 39.9987H24.9015C23.8723 39.9987 23.0303 39.0988 23.0303 37.9988V26.4592C23.0303 25.9192 23.442 25.4592 23.9472 25.4592L27.2406 25.3992C27.5026 25.3792 27.7271 25.1792 27.7833 24.8992L28.4382 21.0793C28.4944 20.7194 28.2324 20.3794 27.8768 20.3794L23.8911 20.4394C23.3671 20.4394 22.9554 19.9994 22.9367 19.4594L22.8619 14.5595C22.8619 14.2396 23.1051 13.9596 23.4232 13.9596L27.9143 13.8796C28.2324 13.8796 28.4756 13.6196 28.4756 13.2796L28.4008 8.47972C28.4008 8.13973 28.1575 7.87975 27.8394 7.87975L22.787 7.95977C19.6807 8.01977 17.2107 10.7397 17.2668 14.0596L17.3604 19.5594C17.3791 20.1194 16.9674 20.5594 16.4435 20.5794L14.1979 20.6194C13.8798 20.6194 13.6366 20.8793 13.6366 21.2193L13.6927 25.0192C13.6927 25.3592 13.936 25.6192 14.2541 25.6192L16.4996 25.5792C17.0235 25.5792 17.4352 26.0192 17.4539 26.5592L17.6223 37.9588C17.6411 39.0788 16.799 39.9987 15.7511 39.9987H11.4472C4.63582 39.9987 0.575195 35.6589 0.575195 28.3591V11.6196C0.575195 4.33986 4.63582 0 11.4472 0H27.1283C33.9397 0 38.0003 4.33986 38.0003 11.6196V28.3791Z" fill="black"/>
</svg>
