<svg width="39" height="40" viewBox="0 0 39 40" fill="none" xmlns="http://www.w3.org/2000/svg">
<path d="M19.4305 0.00125002C9.09237 0.00125002 0.716797 8.96028 0.716797 20.0019C0.716797 28.8434 6.07828 36.3374 13.5088 38.9812C14.448 39.17 14.7872 38.5512 14.7872 38.0162C14.7872 37.5412 14.7767 36.2849 14.7696 34.6173C9.56138 35.8224 8.46428 31.9285 8.46428 31.9285C7.61164 29.6234 6.38121 29.0047 6.38121 29.0047C4.68762 27.7684 6.51572 27.7946 6.51572 27.7946C8.39177 27.9309 9.37892 29.8509 9.37892 29.8509C11.048 32.911 13.7579 32.026 14.8305 31.511C14.9942 30.2222 15.4819 29.3359 16.0129 28.8422C11.8585 28.3409 7.49 26.6221 7.49 18.9581C7.49 16.7693 8.21516 14.9867 9.41401 13.5867C9.20699 13.0854 8.57306 11.0478 9.57892 8.29276C9.57892 8.29276 11.145 7.75899 14.7252 10.3441C16.2235 9.90031 17.8141 9.67905 19.4036 9.6678C20.9943 9.67905 22.5838 9.90156 24.0821 10.3441C27.6412 7.75899 29.2061 8.29276 29.2061 8.29276C30.2108 11.0478 29.5769 13.0842 29.3944 13.5867C30.5816 14.9867 31.3067 16.7705 31.3067 18.9581C31.3067 26.6396 26.9324 28.3334 22.7733 28.8222C23.4236 29.4209 24.0329 30.6522 24.0329 32.521C24.0329 35.1961 24.0096 37.3512 24.0096 38.0024C24.0096 38.5225 24.337 39.1475 25.3008 38.9462C32.7863 36.3299 38.1419 28.8297 38.1419 20.0006C38.1419 8.95903 29.7664 0 19.4282 0L19.4305 0.00125002Z" fill="black"/>
</svg>
