<svg width="38" height="40" viewBox="0 0 38 40" fill="none" xmlns="http://www.w3.org/2000/svg">
<path d="M31.8815 34.0877H26.3461V24.8042C26.3461 22.5905 26.3029 19.7456 23.4515 19.7456C20.5651 19.7456 20.1254 22.1468 20.1254 24.6405V34.0864H14.5829V14.9983H19.9067V17.602H19.978C20.7218 16.0982 22.5311 14.517 25.2304 14.517C30.8453 14.517 31.8874 18.4682 31.8874 23.6055V34.0864L31.8815 34.0877ZM8.32125 12.3896C6.53537 12.3896 5.10385 10.8459 5.10385 8.94472C5.10385 7.04978 6.54121 5.50858 8.32125 5.50858C10.1013 5.50858 11.5433 7.04978 11.5433 8.94472C11.5433 10.8459 10.1013 12.3896 8.32125 12.3896ZM11.0977 34.0877H5.5436V14.9995H11.0977V34.0877ZM34.6604 0H2.7601C1.2362 0 0 1.28871 0 2.88366V37.1163C0 38.7113 1.2362 40 2.7601 40H34.6545C36.1761 40 37.4251 38.7113 37.4251 37.1163V2.88366C37.4251 1.28871 36.1761 0 34.6545 0L34.6604 0Z" fill="black"/>
</svg>
