<svg width="47" height="41" viewBox="0 0 47 41" fill="none" xmlns="http://www.w3.org/2000/svg">
<g filter="url(#filter0_d_60_216)">
<path d="M42.2122 4.27207C40.8357 4.91705 39.362 5.36078 37.8089 5.56203C39.3936 4.54581 40.6053 2.93836 41.183 1.02342C39.6965 1.94839 38.0522 2.61837 36.3037 2.99711C34.9096 1.40216 32.9167 0.398438 30.7051 0.398438C26.4656 0.398438 23.0295 4.06957 23.0295 8.59443C23.0295 9.24566 23.1032 9.87064 23.2306 10.4631C16.8532 10.1444 11.1996 6.86949 7.41851 1.92214C6.75422 3.1271 6.37646 4.52706 6.37646 6.05076C6.37646 8.90192 7.73429 11.4018 9.78682 12.8718C8.53191 12.833 7.35068 12.4618 6.31564 11.8506V11.9493C6.31564 15.9255 8.95879 19.2404 12.4674 19.9953C11.8277 20.1766 11.1447 20.2816 10.4511 20.2816C9.95874 20.2816 9.48859 20.2303 9.01961 20.1378C10.0067 23.3927 12.8323 25.7626 16.2006 25.8339C13.582 28.0276 10.2628 29.335 6.68638 29.335C6.07705 29.335 5.4689 29.3038 4.8584 29.225C8.26993 31.55 12.2966 32.9099 16.6461 32.9099C30.7589 32.9099 38.4709 20.4166 38.4709 9.5969C38.4709 9.25191 38.4709 8.90067 38.4463 8.54818C39.9515 7.40197 41.2543 5.94951 42.2835 4.30332L42.2122 4.27207Z" fill="black"/>
</g>
<defs>
<filter id="filter0_d_60_216" x="0.858398" y="0.398438" width="45.4248" height="40.5117" filterUnits="userSpaceOnUse" color-interpolation-filters="sRGB">
<feFlood flood-opacity="0" result="BackgroundImageFix"/>
<feColorMatrix in="SourceAlpha" type="matrix" values="0 0 0 0 0 0 0 0 0 0 0 0 0 0 0 0 0 0 127 0" result="hardAlpha"/>
<feOffset dy="4"/>
<feGaussianBlur stdDeviation="2"/>
<feComposite in2="hardAlpha" operator="out"/>
<feColorMatrix type="matrix" values="0 0 0 0 0 0 0 0 0 0 0 0 0 0 0 0 0 0 0.25 0"/>
<feBlend mode="normal" in2="BackgroundImageFix" result="effect1_dropShadow_60_216"/>
<feBlend mode="normal" in="SourceGraphic" in2="effect1_dropShadow_60_216" result="shape"/>
</filter>
</defs>
</svg>
